<svg width="142" height="63" viewBox="0 0 142 63" fill="none" xmlns="http://www.w3.org/2000/svg">
<path d="M141.56 0.636993L38.0795 55.3738C29.4983 59.884 22.2904 62.1464 16.4616 62.1464C9.8607 62.1464 5.06917 59.2763 2.09877 53.5288C0.230484 49.8386 -0.317625 45.1601 0.448549 39.4858C1.21472 33.8115 3.25393 27.7711 6.55437 21.3427C9.3067 16.1443 13.8153 9.31318 20.0921 0.841999C17.9631 5.00559 16.4019 9.57718 15.4715 14.3725C13.8212 23.1219 15.3064 29.543 19.9271 33.6431C22.1254 35.5541 25.1488 36.5132 29.0033 36.5132C32.0798 36.5132 35.5452 35.8982 39.3997 34.6681L141.56 0.636993Z" fill="#CCCCCC"/>
</svg>
